<mxfile host="app.diagrams.net" modified="2023-04-10T10:45:59.910Z" agent="Mozilla/5.0 (Windows NT 10.0; Win64; x64) AppleWebKit/537.36 (KHTML, like Gecko) Chrome/111.0.0.0 Safari/537.36" etag="lU8jTu_EofukfsgGPCvK" version="21.1.4" type="github">
  <diagram name="第 1 页" id="iDBu9g9PRlwvheA5kxvF">
    <mxGraphModel dx="2179" dy="858" grid="1" gridSize="10" guides="1" tooltips="1" connect="1" arrows="1" fold="1" page="1" pageScale="1" pageWidth="1169" pageHeight="827" math="0" shadow="0">
      <root>
        <mxCell id="0" />
        <mxCell id="1" parent="0" />
        <mxCell id="VXXbkN8eZvHn7JUf34pw-2" value="用户" style="rounded=0;whiteSpace=wrap;html=1;" vertex="1" parent="1">
          <mxGeometry x="510" y="30" width="80" height="30" as="geometry" />
        </mxCell>
        <mxCell id="VXXbkN8eZvHn7JUf34pw-3" value="用户查看实验指导书(实验台教程)" style="rounded=0;whiteSpace=wrap;html=1;" vertex="1" parent="1">
          <mxGeometry x="360" y="120" width="370" height="40" as="geometry" />
        </mxCell>
        <mxCell id="VXXbkN8eZvHn7JUf34pw-4" value="用户查看指定实验环境的配置指南" style="rounded=0;whiteSpace=wrap;html=1;" vertex="1" parent="1">
          <mxGeometry x="360" y="200" width="370" height="40" as="geometry" />
        </mxCell>
        <mxCell id="VXXbkN8eZvHn7JUf34pw-6" value="CentOS实验" style="rounded=0;whiteSpace=wrap;html=1;" vertex="1" parent="1">
          <mxGeometry x="280" y="310" width="100" height="40" as="geometry" />
        </mxCell>
        <mxCell id="VXXbkN8eZvHn7JUf34pw-7" value="Mysql实验" style="rounded=0;whiteSpace=wrap;html=1;" vertex="1" parent="1">
          <mxGeometry x="440" y="310" width="100" height="40" as="geometry" />
        </mxCell>
        <mxCell id="VXXbkN8eZvHn7JUf34pw-8" value="Python实验" style="rounded=0;whiteSpace=wrap;html=1;" vertex="1" parent="1">
          <mxGeometry x="580" y="310" width="100" height="40" as="geometry" />
        </mxCell>
        <mxCell id="VXXbkN8eZvHn7JUf34pw-9" value="MongoDB实验" style="rounded=0;whiteSpace=wrap;html=1;" vertex="1" parent="1">
          <mxGeometry x="740" y="310" width="100" height="40" as="geometry" />
        </mxCell>
        <mxCell id="VXXbkN8eZvHn7JUf34pw-10" value="" style="swimlane;startSize=0;" vertex="1" parent="1">
          <mxGeometry x="250" y="290" width="620" height="80" as="geometry" />
        </mxCell>
        <mxCell id="VXXbkN8eZvHn7JUf34pw-11" value="WEB终端界面" style="rounded=0;whiteSpace=wrap;html=1;" vertex="1" parent="1">
          <mxGeometry x="460" y="430" width="160" height="70" as="geometry" />
        </mxCell>
        <mxCell id="VXXbkN8eZvHn7JUf34pw-12" value="用户开始进行当前实验" style="rounded=0;whiteSpace=wrap;html=1;" vertex="1" parent="1">
          <mxGeometry x="460" y="530" width="160" height="40" as="geometry" />
        </mxCell>
        <mxCell id="VXXbkN8eZvHn7JUf34pw-13" value="实验完成，点击“退出实验环境”" style="rounded=0;whiteSpace=wrap;html=1;" vertex="1" parent="1">
          <mxGeometry x="430" y="600" width="220" height="40" as="geometry" />
        </mxCell>
        <mxCell id="VXXbkN8eZvHn7JUf34pw-14" value="本次实验结束，记录实验历史" style="rounded=0;whiteSpace=wrap;html=1;" vertex="1" parent="1">
          <mxGeometry x="430" y="680" width="220" height="40" as="geometry" />
        </mxCell>
        <mxCell id="VXXbkN8eZvHn7JUf34pw-15" value="用户查看“实验记录”" style="rounded=0;whiteSpace=wrap;html=1;" vertex="1" parent="1">
          <mxGeometry x="430" y="750" width="220" height="40" as="geometry" />
        </mxCell>
        <mxCell id="VXXbkN8eZvHn7JUf34pw-16" value="继续实验？" style="rhombus;whiteSpace=wrap;html=1;" vertex="1" parent="1">
          <mxGeometry x="485" y="827" width="110" height="80" as="geometry" />
        </mxCell>
        <mxCell id="VXXbkN8eZvHn7JUf34pw-17" value="" style="endArrow=classic;html=1;rounded=0;exitX=1;exitY=0.5;exitDx=0;exitDy=0;entryX=1;entryY=0.5;entryDx=0;entryDy=0;" edge="1" parent="1" source="VXXbkN8eZvHn7JUf34pw-16" target="VXXbkN8eZvHn7JUf34pw-4">
          <mxGeometry width="50" height="50" relative="1" as="geometry">
            <mxPoint x="390" y="710" as="sourcePoint" />
            <mxPoint x="440" y="660" as="targetPoint" />
            <Array as="points">
              <mxPoint x="1000" y="867" />
              <mxPoint x="1000" y="220" />
            </Array>
          </mxGeometry>
        </mxCell>
        <mxCell id="VXXbkN8eZvHn7JUf34pw-18" value="是" style="text;html=1;align=center;verticalAlign=middle;resizable=0;points=[];autosize=1;strokeColor=none;fillColor=none;" vertex="1" parent="1">
          <mxGeometry x="610" y="840" width="40" height="30" as="geometry" />
        </mxCell>
        <mxCell id="VXXbkN8eZvHn7JUf34pw-20" value="结束" style="rounded=1;whiteSpace=wrap;html=1;" vertex="1" parent="1">
          <mxGeometry x="480" y="950" width="120" height="60" as="geometry" />
        </mxCell>
        <mxCell id="VXXbkN8eZvHn7JUf34pw-21" value="" style="endArrow=classic;html=1;rounded=0;entryX=0.5;entryY=0;entryDx=0;entryDy=0;exitX=0.5;exitY=1;exitDx=0;exitDy=0;" edge="1" parent="1" source="VXXbkN8eZvHn7JUf34pw-16" target="VXXbkN8eZvHn7JUf34pw-20">
          <mxGeometry width="50" height="50" relative="1" as="geometry">
            <mxPoint x="390" y="710" as="sourcePoint" />
            <mxPoint x="440" y="660" as="targetPoint" />
          </mxGeometry>
        </mxCell>
        <mxCell id="VXXbkN8eZvHn7JUf34pw-22" value="否" style="text;html=1;align=center;verticalAlign=middle;resizable=0;points=[];autosize=1;strokeColor=none;fillColor=none;" vertex="1" parent="1">
          <mxGeometry x="560" y="915" width="40" height="30" as="geometry" />
        </mxCell>
        <mxCell id="VXXbkN8eZvHn7JUf34pw-23" value="" style="endArrow=classic;html=1;rounded=0;exitX=0.5;exitY=1;exitDx=0;exitDy=0;entryX=0.515;entryY=-0.046;entryDx=0;entryDy=0;entryPerimeter=0;" edge="1" parent="1" source="VXXbkN8eZvHn7JUf34pw-2" target="VXXbkN8eZvHn7JUf34pw-3">
          <mxGeometry width="50" height="50" relative="1" as="geometry">
            <mxPoint x="390" y="360" as="sourcePoint" />
            <mxPoint x="440" y="310" as="targetPoint" />
          </mxGeometry>
        </mxCell>
        <mxCell id="VXXbkN8eZvHn7JUf34pw-24" value="" style="endArrow=classic;html=1;rounded=0;exitX=0.5;exitY=1;exitDx=0;exitDy=0;entryX=0.5;entryY=0;entryDx=0;entryDy=0;" edge="1" parent="1" source="VXXbkN8eZvHn7JUf34pw-3" target="VXXbkN8eZvHn7JUf34pw-4">
          <mxGeometry width="50" height="50" relative="1" as="geometry">
            <mxPoint x="390" y="430" as="sourcePoint" />
            <mxPoint x="440" y="380" as="targetPoint" />
          </mxGeometry>
        </mxCell>
        <mxCell id="VXXbkN8eZvHn7JUf34pw-25" value="" style="endArrow=classic;html=1;rounded=0;exitX=0.5;exitY=1;exitDx=0;exitDy=0;entryX=0.476;entryY=0;entryDx=0;entryDy=0;entryPerimeter=0;" edge="1" parent="1" source="VXXbkN8eZvHn7JUf34pw-4" target="VXXbkN8eZvHn7JUf34pw-10">
          <mxGeometry width="50" height="50" relative="1" as="geometry">
            <mxPoint x="390" y="430" as="sourcePoint" />
            <mxPoint x="440" y="380" as="targetPoint" />
          </mxGeometry>
        </mxCell>
        <mxCell id="VXXbkN8eZvHn7JUf34pw-26" value="选择指定实验环境" style="text;html=1;align=center;verticalAlign=middle;resizable=0;points=[];autosize=1;strokeColor=none;fillColor=none;" vertex="1" parent="1">
          <mxGeometry x="540" y="250" width="120" height="30" as="geometry" />
        </mxCell>
        <mxCell id="VXXbkN8eZvHn7JUf34pw-27" value="" style="endArrow=classic;html=1;rounded=0;exitX=0.466;exitY=1.01;exitDx=0;exitDy=0;exitPerimeter=0;entryX=0.5;entryY=0;entryDx=0;entryDy=0;" edge="1" parent="1" source="VXXbkN8eZvHn7JUf34pw-10" target="VXXbkN8eZvHn7JUf34pw-11">
          <mxGeometry width="50" height="50" relative="1" as="geometry">
            <mxPoint x="390" y="570" as="sourcePoint" />
            <mxPoint x="440" y="520" as="targetPoint" />
          </mxGeometry>
        </mxCell>
        <mxCell id="VXXbkN8eZvHn7JUf34pw-28" value="点击进入" style="text;html=1;align=center;verticalAlign=middle;resizable=0;points=[];autosize=1;strokeColor=none;fillColor=none;" vertex="1" parent="1">
          <mxGeometry x="535" y="384" width="70" height="30" as="geometry" />
        </mxCell>
        <mxCell id="VXXbkN8eZvHn7JUf34pw-29" value="" style="endArrow=classic;html=1;rounded=0;exitX=0.5;exitY=1;exitDx=0;exitDy=0;entryX=0.5;entryY=0;entryDx=0;entryDy=0;" edge="1" parent="1" source="VXXbkN8eZvHn7JUf34pw-11" target="VXXbkN8eZvHn7JUf34pw-12">
          <mxGeometry width="50" height="50" relative="1" as="geometry">
            <mxPoint x="440" y="530" as="sourcePoint" />
            <mxPoint x="490" y="480" as="targetPoint" />
          </mxGeometry>
        </mxCell>
        <mxCell id="VXXbkN8eZvHn7JUf34pw-30" value="" style="endArrow=classic;html=1;rounded=0;entryX=0.5;entryY=0;entryDx=0;entryDy=0;exitX=0.5;exitY=1;exitDx=0;exitDy=0;" edge="1" parent="1" source="VXXbkN8eZvHn7JUf34pw-12" target="VXXbkN8eZvHn7JUf34pw-13">
          <mxGeometry width="50" height="50" relative="1" as="geometry">
            <mxPoint x="440" y="530" as="sourcePoint" />
            <mxPoint x="490" y="480" as="targetPoint" />
          </mxGeometry>
        </mxCell>
        <mxCell id="VXXbkN8eZvHn7JUf34pw-31" value="" style="endArrow=classic;html=1;rounded=0;exitX=0.5;exitY=1;exitDx=0;exitDy=0;" edge="1" parent="1" source="VXXbkN8eZvHn7JUf34pw-13" target="VXXbkN8eZvHn7JUf34pw-14">
          <mxGeometry width="50" height="50" relative="1" as="geometry">
            <mxPoint x="440" y="630" as="sourcePoint" />
            <mxPoint x="490" y="580" as="targetPoint" />
          </mxGeometry>
        </mxCell>
        <mxCell id="VXXbkN8eZvHn7JUf34pw-32" value="" style="endArrow=classic;html=1;rounded=0;exitX=0.5;exitY=1;exitDx=0;exitDy=0;entryX=0.5;entryY=0;entryDx=0;entryDy=0;" edge="1" parent="1" source="VXXbkN8eZvHn7JUf34pw-14" target="VXXbkN8eZvHn7JUf34pw-15">
          <mxGeometry width="50" height="50" relative="1" as="geometry">
            <mxPoint x="440" y="680" as="sourcePoint" />
            <mxPoint x="490" y="630" as="targetPoint" />
          </mxGeometry>
        </mxCell>
        <mxCell id="VXXbkN8eZvHn7JUf34pw-33" value="" style="endArrow=classic;html=1;rounded=0;exitX=0.5;exitY=1;exitDx=0;exitDy=0;entryX=0.5;entryY=0;entryDx=0;entryDy=0;" edge="1" parent="1" source="VXXbkN8eZvHn7JUf34pw-15" target="VXXbkN8eZvHn7JUf34pw-16">
          <mxGeometry width="50" height="50" relative="1" as="geometry">
            <mxPoint x="440" y="830" as="sourcePoint" />
            <mxPoint x="490" y="780" as="targetPoint" />
          </mxGeometry>
        </mxCell>
      </root>
    </mxGraphModel>
  </diagram>
</mxfile>
